# xmcd CD database file
#
# Track frame offsets:
#	150
#	10650
#	20992
#	31577
#	42427
#	54102
#	64990
#	74705
#	86042
#	99840
#	112285
#	123532
#	133862
#	148245
#
# Disc length: 2150 seconds
#
# Revision: 0
# Processed by: cddbd v1.5.2PL0 Copyright (c) Steve Scherf et al.
# Submitted via: CDex 1.51
#
DISCID=cf08640e
DTITLE=Ferlin Husky - Signature Series
DYEAR=2003
DGENRE=Country
TTITLE0=Wings Of A Dove
TTITLE1=Once
TTITLE2=Just For You
TTITLE3=Gone
TTITLE4=I Feel Better All Over
TTITLE5=A Fallen Star
TTITLE6=Draggin' The River
TTITLE7=Heavenly Sunshine
TTITLE8=The Waltz You Saved For Me
TTITLE9=I'll Baby Sit With You
TTITLE10=My Reason For Living
TTITLE11=Sweet Misery
TTITLE12=Country Music Is Here To Stay - Simon Crum
TTITLE13=Cuzz Yore So Sweet - Simon Crum
EXTD=YEAR: 2003
EXTT0=
EXTT1=
EXTT2=
EXTT3=
EXTT4=
EXTT5=
EXTT6=
EXTT7=
EXTT8=
EXTT9=
EXTT10=
EXTT11=
EXTT12=
EXTT13=
PLAYORDER=
